<?xml version="1.0" encoding="utf-8"?>
<!-- Generator: Adobe Illustrator 26.1.0, SVG Export Plug-In . SVG Version: 6.00 Build 0)  -->
<svg version="1.1" id="Layer_1" xmlns="http://www.w3.org/2000/svg" xmlns:xlink="http://www.w3.org/1999/xlink" x="0px" y="0px"
	 viewBox="0 0 28 28" style="enable-background:new 0 0 28 28;" xml:space="preserve">
<style type="text/css">
	.st0{fill:#00BBF9;}
</style>
<desc>Created with Sketch.</desc>
<g id="_xD83D__xDD0D_-Product-Icons">
	<g id="ic_fluent_library_28_filled">
		<path id="_xD83C__xDFA8_-Color" class="st0" d="M6,3c1.1,0,2,0.9,2,2v18c0,1.1-0.9,2-2,2H4c-1.1,0-2-0.9-2-2V5c0-1.1,0.9-2,2-2H6z
			 M13,3c1.1,0,2,0.9,2,2v18c0,1.1-0.9,2-2,2h-2c-1.1,0-2-0.9-2-2V5c0-1.1,0.9-2,2-2H13z M22.1,6.5L25.9,22c0.3,1.1-0.4,2.2-1.5,2.4
			l-2,0.5c-1.1,0.3-2.2-0.4-2.4-1.5L16.2,8c-0.3-1.1,0.4-2.2,1.5-2.4l2-0.5C20.7,4.8,21.8,5.5,22.1,6.5z"/>
	</g>
</g>
</svg>
